<?xml version="1.0" encoding="UTF-8" standalone="no"?>
<!-- Created with Inkscape (http://www.inkscape.org/) -->
<svg xmlns:rdf="http://www.w3.org/1999/02/22-rdf-syntax-ns#" xmlns="http://www.w3.org/2000/svg" height="192" width="182" version="1.1" xmlns:cc="http://creativecommons.org/ns#" xmlns:dc="http://purl.org/dc/elements/1.1/">
<metadata>
<rdf:RDF>
<cc:Work rdf:about="">
<dc:format>image/svg+xml</dc:format>
<dc:type rdf:resource="http://purl.org/dc/dcmitype/StillImage"/>
<dc:title/>
</cc:Work>
</rdf:RDF>
</metadata>
<g transform="translate(-14,-11.999996)">
<rect transform="translate(-97.571449,-212.79076)" height="5" width="6" y="224.79" x="111.57" fill="#133e70"/>
<rect transform="translate(-97.571449,-212.79076)" height="10" width="10" y="239.79" x="115.57" fill="#133e70"/>
<rect transform="translate(-97.571449,-212.79076)" height="10" width="10" y="242.79" x="128.57" fill="#133e70"/>
<rect transform="translate(-97.571449,-212.79076)" height="21" width="22" y="235.79" x="141.57" fill="#133e70"/>
<path fill="#133e70" d="m48,46,21,0,0-20,127,0,0,142-170,0,0-102,22,0z"/>
<path fill="#133e70" d="m68,127-18,0,0-20,3-3,37,0,0,3-22,0z"/>
<rect height="7" width="8" y="17" x="19" fill="#2b5980"/>
<rect height="21" width="22" y="43" x="23" fill="#2b5980"/>
<rect height="20" width="21" y="26" x="69" fill="#2b5980"/>
<rect height="21" width="22" y="46" x="90" fill="#2b5980"/>
<path fill="#2b5980" d="m112,67,0,20-3,0,0,17-19,0,0,3,24,0,0-7,15-15,3,0,0-18z"/>
<rect height="20" width="22" y="107" x="68" fill="#2b5980"/>
<path fill="#2b5980" d="m50,127,18,0,0,17-15,0-3-3z"/>
<path fill="#2b5980" d="m90,127,24,0,0,7,18,0,0,10-18,0,0,4-5,0,0-4-19,0z"/>
<path fill="#2b5980" d="m26,148v20h21v-5h-2l-14-14v-1z"/>
<rect transform="translate(-97.571449,-212.79076)" height="5" width="21" y="375.79" x="166.57" fill="#2b5980"/>
<rect transform="translate(-97.571449,-212.79076)" height="20" width="21" y="238.79" x="251.57" fill="#2b5980"/>
<rect transform="translate(-97.571449,-212.79076)" height="9" width="9" y="230.79" x="127.57" fill="#317ea8"/>
<rect height="20" width="22" y="26" x="132" fill="#317ea8"/>
<rect height="21" width="21" y="46" x="154" fill="#317ea8"/>
<rect height="17" width="22" y="127" x="68" fill="#317ea8"/>
<rect height="20" width="24" y="107" x="90" fill="#317ea8"/>
<rect height="5" width="22" y="163" x="47" fill="#317ea8"/>
<path fill="#317ea8" d="m175,66,21,0,0,21-5,0,0-2-16,0z"/>
<path fill="#317ea8" d="m136,104-3,3,20,0,0,8,22,0,0-11z"/>
<path fill="#317ea8" d="m132,134,22,0,0,9,16,0-1,1-37,0z"/>
<path fill="#317ea8" d="m171,134,0,8,1-1,0-7z"/>
<path fill="#317ea8" d="m109,148h5v15h19v5h-43v-5h19z"/>
<rect height="40" width="21" y="26" x="175" fill="#1aa5bf"/>
<rect height="18" width="43" y="67" x="132" fill="#1aa5bf"/>
<rect height="8" width="20" y="107" x="133" fill="#1aa5bf"/>
<path fill="#1aa5bf" d="m191,87,5,0,0,81-63,0,0-5,43,0,15-15,0-33-16,0,0-11,16,0z"/>
<path fill="#1aa5bf" d="m154,134,17,0,0,8-1,1-16,0z"/>
<g style="letter-spacing:0px;word-spacing:0px;" font-weight="normal" transform="translate(-97.571449,-212.79076)" font-size="40px" font-style="normal" font-family="Sans" line-height="125%" fill="#424243">
<path d="m156.51,416.79-26.152,0-6.0352-6.0352,0-20.117,6.0352-6.0352,26.152,0,0,8.0469-23.135,0-1.0059,1.0059,0,14.082,1.0059,1.0059,15.088,0,0-4.0234-8.0469,0,0-8.0469,16.094,0,0,20.117"/>
<path d="m166.57,407.74,0,9.0527-8.0469,0,0-20.117,10.562-10.562,1.5088-1.5088,8.0469,0,1.5088,1.5088,10.562,10.562,0,20.117-8.0469,0,0-9.0527-16.094,0m16.094-8.0469-8.0469-8.0469-8.0469,8.0469,16.094,0"/>
<path d="m212.84,416.79-8.0469,0,0-24.141-4.0234,0,0,24.141-8.0469,0,0-32.188,26.152,0,6.0352,6.0352,0,26.152-8.0469,0,0-23.135-1.0059-1.0059-3.0176,0,0,24.141"/>
<path d="m251.06,396.67,0,8.0469-16.094,0,0,4.0234,24.141,0,0,8.0469-32.188,0,0-32.188,32.188,0,0,8.0469-24.141,0,0,4.0234,16.094,0"/>
<path d="m293.31,410.76-6.0352,6.0352-26.152,0,0-8.0469,23.135,0,1.0059-1.0059,0-3.0176-24.141,0,0-14.082,6.0352-6.0352,26.152,0,0,8.0469-23.135,0-1.0059,1.0059,0,3.0176,24.141,0,0,14.082"/>
</g>
</g>
<g transform="translate(-111.57145,-224.79076)" fill="#FFF">
<path d="m31,99,15-14,63,0,0,19-56,0-3,3,0,34,3,3,56,0,0,19-64,0-14-14z" transform="translate(97.571449,212.79076)"/>
<path d="m114,144,0,19,62,0,15-15,0-33-58,0,0-8,3-3,55,0,0-19-62,0-15,15,0,34,58,0,0,7-3,3z" transform="translate(97.571449,212.79076)"/>
</g>
</svg>
